<svg id="Capa_1" enable-background="new 0 0 512 512" height="512" viewBox="0 0 512 512" width="512" xmlns="http://www.w3.org/2000/svg" xmlns:xlink="http://www.w3.org/1999/xlink"><linearGradient id="SVGID_1_" gradientUnits="userSpaceOnUse" x1="256" x2="256" y1="512" y2="0"><stop offset="0" stop-color="#00b59c"/><stop offset="1" stop-color="#9cffac"/></linearGradient><g><g><g><path d="m256 0c-52.545 0-103.077 16.392-146.877 47.51-17.247-10.148-39.858-7.826-54.648 6.965-17.546 17.545-17.546 46.094 0 63.64 17.544 17.544 46.094 17.545 63.64 0 12.826-12.826 16.264-31.529 10.338-47.518 38.244-26.597 82.076-40.597 127.547-40.597 124.617 0 226 101.383 226 226 0 29.505-6.534 59.555-19.42 89.316-3.292 7.602.202 16.433 7.805 19.725 7.629 3.304 16.447-.232 19.725-7.805 14.525-33.546 21.89-67.607 21.89-101.236 0-140.959-115.049-256-256-256zm-159.099 96.901c-5.849 5.849-15.365 5.849-21.214 0s-5.849-15.365 0-21.214c5.849-5.848 15.364-5.849 21.214 0 5.849 5.849 5.849 15.366 0 21.214zm296.985 296.985c-12.826 12.826-16.264 31.529-10.338 47.518-38.245 26.596-82.077 40.596-127.548 40.596-124.617 0-226-101.383-226-226 0-29.505 6.534-59.555 19.42-89.316 3.292-7.602-.202-16.433-7.805-19.725-7.602-3.292-16.434.203-19.725 7.805-14.525 33.546-21.89 67.607-21.89 101.236 0 140.959 115.049 256 256 256 52.545 0 103.077-16.392 146.877-47.51 17.284 10.169 39.886 7.798 54.648-6.965 17.546-17.545 17.546-46.094 0-63.64-17.545-17.545-46.094-17.544-63.639.001zm42.427 42.427c-5.85 5.85-15.364 5.848-21.214 0-5.849-5.849-5.849-15.365 0-21.213 5.847-5.848 15.365-5.849 21.214 0 5.848 5.847 5.848 15.364 0 21.213zm-180.313-15.313c90.981 0 165-74.019 165-165s-74.019-165-165-165-165 74.019-165 165 74.019 165 165 165zm134.162-180h-59.452c-1.385-36.316-7.777-70.188-18.356-96.637-1.956-4.891-4.043-9.458-6.241-13.714 45.257 18.158 78.473 60.143 84.049 110.351zm-77.808 126.637c10.58-26.449 16.972-60.321 18.356-96.637h59.452c-5.576 50.208-38.792 92.193-84.05 110.351 2.199-4.257 4.285-8.823 6.242-13.714zm-84.853-212.132c8.384-20.961 19.571-34.505 28.499-34.505s20.115 13.544 28.499 34.505c9.234 23.085 14.861 53.018 16.189 85.495h-89.377c1.329-32.477 6.956-62.41 16.19-85.495zm73.187 115.495c-1.328 32.477-6.956 62.41-16.189 85.495-8.384 20.961-19.571 34.505-28.499 34.505s-20.115-13.544-28.499-34.505c-9.234-23.085-14.861-53.018-16.189-85.495zm-94.8-140.351c-2.198 4.256-4.285 8.823-6.241 13.714-10.58 26.449-16.972 60.321-18.356 96.637h-59.452c5.575-50.208 38.791-92.193 84.049-110.351zm-24.598 140.351c1.385 36.316 7.777 70.188 18.356 96.637 1.956 4.891 4.043 9.458 6.241 13.714-45.258-18.158-78.474-60.143-84.05-110.351z" fill="url(#SVGID_1_)"/></g></g></g></svg>